<svg xmlns="http://www.w3.org/2000/svg" width="33.607" height="6.672" viewBox="0 0 33.607 6.672">
    <defs>
        <style>
            .cls-1{fill:#5d5d5d}
        </style>
    </defs>
    <g id="Ico_opc" transform="rotate(90 16.803 16.804)">
        <path id="Trazado_6" d="M3.336 0a3.214 3.214 0 0 1 2.358.977 3.212 3.212 0 0 1 .977 2.358 3.212 3.212 0 0 1-.977 2.358 3.214 3.214 0 0 1-2.358.977 3.215 3.215 0 0 1-2.36-.977A3.215 3.215 0 0 1 0 3.336 3.215 3.215 0 0 1 .976.977 3.215 3.215 0 0 1 3.336 0z" class="cls-1"/>
        <path id="Trazado_184" d="M3.336 0a3.214 3.214 0 0 1 2.358.977 3.212 3.212 0 0 1 .977 2.358 3.212 3.212 0 0 1-.977 2.358 3.214 3.214 0 0 1-2.358.977 3.215 3.215 0 0 1-2.36-.977A3.215 3.215 0 0 1 0 3.336 3.215 3.215 0 0 1 .976.977 3.215 3.215 0 0 1 3.336 0z" class="cls-1" transform="translate(0 13.441)"/>
        <path id="Trazado_185" d="M3.336 0a3.214 3.214 0 0 1 2.358.977 3.212 3.212 0 0 1 .977 2.358 3.212 3.212 0 0 1-.977 2.358 3.214 3.214 0 0 1-2.358.977 3.215 3.215 0 0 1-2.36-.977A3.215 3.215 0 0 1 0 3.336 3.215 3.215 0 0 1 .976.977 3.215 3.215 0 0 1 3.336 0z" class="cls-1" transform="translate(0 26.936)"/>
    </g>
</svg>
