<svg xmlns="http://www.w3.org/2000/svg" width="47.736" height="47.735" viewBox="0 0 47.736 47.735">
    <g>
        <path fill="#05d3d5" d="M44.868 21q1.173 0 2.34.115t2.317.343q1.15.229 2.272.57t2.203.789q1.083.449 2.117 1t2.009 1.2q.975.652 1.881 1.4t1.736 1.573q.829.829 1.573 1.736t1.4 1.881q.651.975 1.2 2.009t1 2.117q.448 1.083.789 2.205t.57 2.272q.229 1.15.343 2.317t.115 2.34q0 1.173-.115 2.34t-.343 2.317q-.229 1.15-.57 2.272T66.919 54q-.449 1.083-1 2.117t-1.2 2.009q-.652.975-1.4 1.881t-1.573 1.736q-.829.829-1.736 1.573t-1.881 1.4q-.975.651-2.009 1.2t-2.117 1q-1.083.448-2.205.789t-2.272.57q-1.15.229-2.317.343t-2.34.115q-1.173 0-2.34-.115t-2.317-.343q-1.15-.229-2.272-.57t-2.205-.789q-1.083-.449-2.117-1t-2.009-1.2q-.975-.652-1.881-1.4t-1.736-1.573q-.829-.829-1.573-1.736t-1.4-1.881q-.651-.975-1.2-2.009t-1-2.117q-.448-1.083-.789-2.205t-.57-2.272q-.229-1.15-.343-2.317T21 44.868q0-1.172.115-2.34t.343-2.317q.229-1.15.57-2.272t.789-2.205q.449-1.083 1-2.117t1.2-2.009q.652-.975 1.4-1.881t1.573-1.736q.829-.829 1.736-1.573t1.881-1.4q.975-.651 2.009-1.2t2.117-1q1.083-.448 2.205-.789t2.272-.57q1.15-.229 2.317-.343T44.868 21z" transform="translate(-21 -21)"/>
        <g>
            <path fill="none" stroke="#fff" stroke-width="2px" d="M71.815 51.857v-6.751a.486.486 0 0 0-.253-.451.519.519 0 0 0-.512 0l-3.246 2.1V44.8a.5.5 0 0 0-.5-.528h-9.145a.5.5 0 0 0-.5.528v7.367a.492.492 0 0 0 .138.372.5.5 0 0 0 .366.152h9.148a.5.5 0 0 0 .366-.152.492.492 0 0 0 .138-.372v-1.974l3.239 2.116a.519.519 0 0 0 .5 0 .485.485 0 0 0 .261-.452zM74.3 37a5.546 5.546 0 0 1 5.549 5.511v11.482a5.553 5.553 0 0 1-5.549 5.549h-5.815l-3.061 4.4a.6.6 0 0 1-1 0l-3.057-4.362h-5.818A5.553 5.553 0 0 1 50 54.031V42.549A5.553 5.553 0 0 1 55.549 37z" transform="translate(8.993 11.687) translate(-50 -37)"/>
        </g>
    </g>
</svg>
