<svg xmlns="http://www.w3.org/2000/svg" width="37.61" height="33.588" viewBox="0 0 37.61 33.588">
    <path fill="#5d5d5d" stroke="#5d5d5d" stroke-miterlimit="10" stroke-width="0.8px" d="M30.171 32.788H6.639A6.646 6.646 0 0 1 0 26.15V6.638A6.646 6.646 0 0 1 6.639 0h23.532a6.646 6.646 0 0 1 6.639 6.638V26.15a6.646 6.646 0 0 1-6.639 6.638zM6.639 1.9A4.747 4.747 0 0 0 1.9 6.638V26.15a4.747 4.747 0 0 0 4.742 4.742h23.529a4.747 4.747 0 0 0 4.742-4.742V6.638A4.747 4.747 0 0 0 30.171 1.9zm22.054 25.57H7.236a2.186 2.186 0 0 1-1.692-3.57l4.033-4.928a2.183 2.183 0 0 1 1.665-.8h.027a2.185 2.185 0 0 1 1.656.76l2.664 3.093a.285.285 0 0 0 .218.1l.037-.007a.273.273 0 0 0 .183-.093l5-5.765a2.164 2.164 0 0 1 1.632-.754h.067a2.178 2.178 0 0 1 1.665.828l6.016 7.593a2.186 2.186 0 0 1-1.713 3.543zm-17.4-7.406h-.023a.285.285 0 0 0-.22.106L7.013 25.1a.289.289 0 0 0 .224.472h21.455a.289.289 0 0 0 .227-.469L22.9 17.508a.286.286 0 0 0-.221-.11h-.005a.3.3 0 0 0-.219.1l-5 5.764a2.185 2.185 0 0 1-1.652.754 2.187 2.187 0 0 1-1.653-.76l-2.663-3.093a.278.278 0 0 0-.199-.102zm-.632-6.676a4.006 4.006 0 1 1 4.006-4.006 4.011 4.011 0 0 1-4.011 4.003zm0-6.116a2.109 2.109 0 1 0 2.11 2.109 2.112 2.112 0 0 0-2.115-2.111z" transform="translate(.4 .4)"/>
</svg>
