<svg xmlns="http://www.w3.org/2000/svg" width="41.647" height="33.789" viewBox="0 0 41.647 33.789">
    <path fill="#5d5d5d" d="M8.954 33.789a9 9 0 0 1-8.954-9V9.006A9 9 0 0 1 8.953 0H32.7a9.093 9.093 0 0 1 6.564 2.532 8.8 8.8 0 0 1 2.383 6.413v15.787a9 9 0 0 1-8.952 9zm0-31.033A6.248 6.248 0 0 0 2.74 9.007v15.777a6.244 6.244 0 0 0 6.216 6.248l23.738-.052a6.243 6.243 0 0 0 6.212-6.248V8.951a6.158 6.158 0 0 0-1.706-4.32 6.527 6.527 0 0 0-4.5-1.875zm15.1 21.566h-12.51a2.028 2.028 0 0 1-1.453-.63 2.074 2.074 0 0 1-.573-1.536V12.099a2.018 2.018 0 0 1 .568-1.468 2.055 2.055 0 0 1 1.479-.636h12.52a2.056 2.056 0 0 1 1.488.649 2.083 2.083 0 0 1 .552 1.544v.07l2.323-1.515a2.253 2.253 0 0 1 1.117-.308 2.049 2.049 0 0 1 2.043 2.157v9.182a2.063 2.063 0 0 1-1.089 1.865 2 2 0 0 1-.974.251 2.093 2.093 0 0 1-1.019-.268l-2.388-1.568v.17a2.042 2.042 0 0 1-.573 1.469 2.178 2.178 0 0 1-1.512.629zM12.255 12.75v8.815H23.4v-4.244l-.011.007V12.75zm16.613 1l-5.2 3.391 5.2 3.416z"/>
</svg>
