<svg xmlns="http://www.w3.org/2000/svg" width="207.961" height="45.014" viewBox="0 0 207.961 45.014">
    <defs>
        <style>
            .cls-1{fill:#00c5e0}.cls-2{fill:#8cc63f}.cls-3{fill:#4d4d4d}
        </style>
    </defs>
    <g id="SocialTime_Logo" transform="translate(-9.27 -8.207)">
        <g id="Grupo_902" transform="translate(9.27 8.208)">
            <path id="Trazado_1068" d="M295.477 1346.54a25.343 25.343 0 0 0-2.911 3.769 28.614 28.614 0 0 0-2.207 4.185 30.765 30.765 0 0 0-1.507 4.453c-.187.76-.355 1.522-.483 2.294q-.049.3-.089.588l-.643-.822-.916-1.135c-.315-.372-.621-.749-.948-1.115.177.455.377.9.567 1.348l.6 1.33.621 1.317c.212.435.417.875.635 1.306l.841 1.667.477-1.95c.081-.331.184-.7.289-1.048s.212-.709.329-1.057q.343-1.053.744-2.087a43.98 43.98 0 0 1 1.781-4.026 33.979 33.979 0 0 1 4.815-7.21c.226-.282.486-.532.729-.8l.371-.394.388-.374c.266-.246.509-.511.784-.743s.547-.469.816-.709a29.817 29.817 0 0 1 3.545-2.51 37.476 37.476 0 0 1 8.226-3.5 22.1 22.1 0 0 0-9.112 1.746l-1.08.493c-.361.165-.7.374-1.049.56l-.522.288c-.172.1-.335.214-.5.321-.331.219-.671.428-1 .659a24.56 24.56 0 0 0-3.591 3.156z" class="cls-1" transform="translate(-266.438 -1334.431)"/>
            <path id="Trazado_1069" d="M303.575 1347.154a19.213 19.213 0 0 1 .975 12.12 18.347 18.347 0 0 1-6.361 9.928 17.345 17.345 0 0 1-2.468 1.633 17.53 17.53 0 0 1-2.684 1.213 18.027 18.027 0 0 1-5.762 1.017 17.667 17.667 0 0 1-10.893-3.6 17.73 17.73 0 0 1-6.4-9.525 18.036 18.036 0 0 1-.559-5.821 17.409 17.409 0 0 1 .443-2.914 18.106 18.106 0 0 1 .9-2.817 18.337 18.337 0 0 1 7.847-8.8 19.209 19.209 0 0 1 11.933-2.312 18.413 18.413 0 0 0-12.557 1.1 19.59 19.59 0 0 0-5.367 3.735 18.32 18.32 0 0 0-2.141 2.522 19.215 19.215 0 0 0-1.689 2.861 19.605 19.605 0 0 0-.293 16.28 18.983 18.983 0 0 0 1.6 2.971 19.788 19.788 0 0 0 23.777 7.579 19.357 19.357 0 0 0 5.678-3.474 19.746 19.746 0 0 0 4.152-5.134 19.3 19.3 0 0 0 2.153-6.172 18.421 18.421 0 0 0-2.284-12.39z" class="cls-2" transform="translate(-261.852 -1333.782)"/>
            <g id="Grupo_901">
                <path id="Trazado_1070" d="M290.428 1392.159a22.293 22.293 0 0 1-2.355.034l.032-.308a22.708 22.708 0 0 0 2.323.274z" class="cls-2" transform="translate(-266.996 -1347.196)"/>
                <path id="Trazado_1071" d="M280.924 1390.592a21.154 21.154 0 0 1-4.2-1.571l.532-.988a23.772 23.772 0 0 0 3.887 1.829z" class="cls-2" transform="translate(-264.241 -1346.261)"/>
                <path id="Trazado_1072" d="M270.64 1384.825a23.4 23.4 0 0 1-3.274-3.136l1.266-1.033a21.826 21.826 0 0 0 2.906 3.085z" class="cls-2" transform="translate(-261.968 -1344.469)"/>
                <path id="Trazado_1073" d="M263.384 1375.548a21.83 21.83 0 0 1-1.79-4.2l1.8-.544a23.033 23.033 0 0 0 1.555 3.905z" class="cls-2" transform="translate(-260.567 -1342.077)"/>
                <path id="Trazado_1074" d="M260.358 1364.144l-.121-2.286.121-2.286 1.922.186-.089 2.1.089 2.1z" class="cls-2" transform="translate(-260.237 -1339.349)"/>
                <path id="Trazado_1075" d="M261.593 1352.3a20.613 20.613 0 0 1 .785-2.149q.452-1.05 1.005-2.051l1.572.838q-.481.939-.867 1.919c-.257.652-.493 1.315-.69 1.987z" class="cls-2" transform="translate(-260.566 -1336.564)"/>
                <path id="Trazado_1076" d="M267.364 1342.147a23.393 23.393 0 0 1 3.273-3.135l.9 1.089a21.862 21.862 0 0 0-2.906 3.085z" class="cls-2" transform="translate(-261.968 -1334.356)"/>
                <path id="Trazado_1077" d="M276.726 1335.333a21.033 21.033 0 0 1 4.2-1.57l.226.733a23.83 23.83 0 0 0-3.886 1.829z" class="cls-2" transform="translate(-264.241 -1333.081)"/>
                <path id="Trazado_1078" d="M288.073 1332.879a22.391 22.391 0 0 1 2.355.034 23.257 23.257 0 0 0-2.324.276z" class="cls-2" transform="translate(-266.996 -1332.863)"/>
            </g>
        </g>
        <g id="Grupo_8675" transform="translate(59.478 14.838)">
            <path id="Trazado_52119" d="M492.822 676.8c-.176 1.3-.315 1.718-1.122 1.718h-7.045l-3.333 20.941c-.106.842-.631.913-2.14.913-1.543 0-2.034-.07-1.894-.913l3.3-20.941h-7.051c-.807 0-.807-.421-.6-1.718s.351-1.754 1.122-1.754h18.171c.838.002.803.461.592 1.754z" class="cls-3" transform="translate(-384.971 -674.41)"/>
            <path id="Trazado_52120" d="M520.706 699.048l2.526-16.032c.141-.877.632-.948 2.07-.948 1.473 0 1.929.07 1.788.948l-2.526 16.032c-.139.842-.6.912-2.07.912-1.442.001-1.933-.075-1.788-.912zm2.912-22.1c0-1.79.666-2.6 2.561-2.6 1.719 0 2.346.6 2.346 1.754 0 1.754-.7 2.6-2.561 2.6-1.754-.005-2.351-.566-2.351-1.758z" class="cls-3" transform="translate(-413.563 -673.991)"/>
            <path id="Trazado_52121" d="M565.548 699.488l-1.684 10.7c-.141.842-.6.912-2.07.912-1.434 0-1.929-.07-1.788-.912l1.649-10.383c.28-1.825-.175-3.368-2.034-3.368a5.287 5.287 0 0 0-3.578 1.859 3.024 3.024 0 0 0-.912 1.825l-1.578 10.067c-.14.842-.631.912-2.07.912-1.473 0-1.929-.07-1.788-.912l1.614-10.383c.28-1.825-.141-3.368-2-3.368a5.435 5.435 0 0 0-3.613 1.859 3.23 3.23 0 0 0-.912 1.825l-1.584 10.065c-.141.842-.6.912-2.07.912-1.434 0-1.929-.07-1.788-.912l2.526-15.96c.141-.842.391-1.017 1.613-1.017 1.052 0 1.3.141 1.474.807l.141 1.788a8.167 8.167 0 0 1 5.862-2.804 3.919 3.919 0 0 1 4.21 3.128 8.309 8.309 0 0 1 6.139-3.128c3.644 0 4.802 2.873 4.241 6.488z" class="cls-3" transform="translate(-424.7 -685.134)"/>
            <path id="Trazado_52122" d="M612.864 703.763v.07c0 3.368 1.649 4.314 3.65 4.314 2.6 0 4.21-1.473 4.77-1.473.631 0 1.122.982 1.122 1.684 0 .842-.315 1.193-1.157 1.613a11.41 11.41 0 0 1-5.332 1.3c-4.041 0-7.016-2.175-7.016-7.226 0-5.859 3.4-11.225 9.576-11.225 3.754 0 5.542 2 5.542 4.665 0 4.279-3.893 6.387-8.98 6.387-.665-.001-1.404-.039-2.175-.109zm.28-2.666h1.156c3.65 0 6.1-.877 6.1-3.258 0-1.367-.948-2-2.385-2-2.665-.005-4.279 2.311-4.875 5.258z" class="cls-3" transform="translate(-466.264 -685.024)"/>
            <g id="Grupo_8665">
                <path id="Trazado_52134" d="M255.806 699.519a2 2 0 0 1-1.163-1.868c0-.912.881-2.29 1.694-2.29.881 0 2.5 2.571 6.342 2.571 2.854 0 4.721-1.339 4.721-3.8 0-2.431-1.9-3.312-4.3-4.3-2.749-1.127-5.883-2.536-5.883-6.8 0-4.862 4.123-7.646 9.09-7.646a10.735 10.735 0 0 1 5.532 1.479 1.825 1.825 0 0 1 1.092 1.762c0 1.022-.811 2.325-1.55 2.325-.811 0-2.36-2.044-5.5-2.044-2.607 0-4.439 1.374-4.439 3.593 0 2.114 1.657 2.854 4.017 3.8 2.819 1.128 6.237 2.642 6.237 7.152 0 5.32-4.193 8-9.337 8a11.388 11.388 0 0 1-6.555-1.933z" class="cls-1" transform="translate(-254.642 -674.606)"/>
                <path id="Trazado_52135" d="M301.311 705.38c0-5.884 3.312-11.274 9.76-11.274 3.947 0 6.835 2.149 6.835 7.259 0 5.848-3.312 11.274-9.76 11.274-3.946 0-6.835-2.149-6.835-7.259zm12.579-3.841c0-3.382-1.515-4.4-3.277-4.4-3.453 0-5.285 3.91-5.285 8.033 0 3.347 1.515 4.439 3.277 4.439 3.453 0 5.285-3.944 5.285-8.067z" class="cls-1" transform="translate(-282.521 -685.793)"/>
                <path id="Trazado_52136" d="M346.092 705.381c0-5.883 3.312-11.274 9.76-11.274a8.982 8.982 0 0 1 3.84.776 1.633 1.633 0 0 1 1.022 1.727c0 .951-.67 1.938-1.374 1.938-.635 0-1.444-1.2-3.488-1.2-3.947 0-5.743 4.052-5.743 7.61 0 3.453 1.657 4.475 3.664 4.475 2.29 0 3.593-1.3 4.193-1.3s1.127.987 1.127 1.694a1.749 1.749 0 0 1-1.233 1.727 11.224 11.224 0 0 1-4.933 1.092c-3.945-.007-6.835-2.156-6.835-7.265z" class="cls-1" transform="translate(-309.271 -685.794)"/>
                <path id="Trazado_52137" d="M383.926 700.359l2.536-16.1c.141-.881.635-.951 2.079-.951 1.481 0 1.938.07 1.8.951l-2.536 16.1c-.141.846-.6.912-2.085.912-1.44.004-1.934-.071-1.794-.912zm2.925-22.2c0-1.8.669-2.607 2.572-2.607 1.727 0 2.36.6 2.36 1.762 0 1.761-.705 2.607-2.572 2.607-1.76.002-2.36-.562-2.36-1.76z" class="cls-1" transform="translate(-331.859 -674.711)"/>
                <path id="Trazado_52138" d="M420.592 695.462l-2.536 15.926c-.141.846-.422 1.022-1.62 1.022-1.092 0-1.409-.07-1.479-.811l-.141-1.551a7.471 7.471 0 0 1-5.532 2.607c-3.1 0-5.743-2.114-5.743-7.223 0-5.884 3.347-11.239 8.456-11.239a5.428 5.428 0 0 1 4.863 2.679l.633-1.621c.282-.705.67-.811 1.727-.811 1.231.001 1.513.176 1.372 1.022zm-5.18 3.876a3.258 3.258 0 0 0-3-1.973c-3.1 0-4.862 3.84-4.862 7.857 0 3.277 1.268 4.3 3.03 4.3a4.62 4.62 0 0 0 3.629-1.938 4.727 4.727 0 0 0 1.022-2.5c.177-1.022.353-2.114.494-3.171a4.171 4.171 0 0 0-.315-2.573z" class="cls-1" transform="translate(-343.587 -685.847)"/>
                <path id="Trazado_52139" d="M447.424 699.1l3.91-24.734c.141-.846.635-.912 2.085-.912 1.479 0 1.938.07 1.8.912l-3.91 24.734c-.141.846-.6.913-2.085.913-1.446.006-1.94-.064-1.8-.913z" class="cls-1" transform="translate(-369.79 -673.456)"/>
            </g>
        </g>
    </g>
</svg>
