<svg xmlns="http://www.w3.org/2000/svg" width="47.737" height="47.737" viewBox="0 0 47.737 47.737">
    <g>
        <path fill="#8365ff" d="M235.536 56.272a23.791 23.791 0 1 1 9.29-1.875 23.72 23.72 0 0 1-9.29 1.875z" transform="translate(-211.667 -8.535)"/>
        <g>
            <path fill="#fff" d="M268.561 40.876l-8.206-8.344a.765.765 0 0 0-.525-.228h-.042a.775.775 0 0 0-.534.241c-.466.459-2.837 2.789-3.7 3.592a3.442 3.442 0 0 1-2.333.97 3.11 3.11 0 0 1-1.863-.628 1.548 1.548 0 0 1-.542-.589c.481-.513 4.713-4.744 7.821-7.843l11.289 11.463zm-.514 2.928a1.665 1.665 0 0 1-1.264.487 2.835 2.835 0 0 1-.418-.033l-6.006-6.058a.783.783 0 0 0-1.082-.005.764.764 0 0 0-.005 1.082l6.115 6.169a1.231 1.231 0 0 1-.259 1.3 1.62 1.62 0 0 1-1.027.368.754.754 0 0 1-.4-.089l-6.183-6.336a.784.784 0 0 0-1.082-.014.753.753 0 0 0-.231.537.762.762 0 0 0 .218.545l6.2 6.354a1.27 1.27 0 0 1-.445 1.439 1.523 1.523 0 0 1-1.2.05 3.84 3.84 0 0 0-.725-1.631 2.972 2.972 0 0 0-1.977-1.028 2.759 2.759 0 0 0-.747-1.883A3.044 3.044 0 0 0 255.4 44a2.8 2.8 0 0 0-.86-1.781 2.73 2.73 0 0 0-2.12-.754 2.916 2.916 0 0 0-.771-2.016 2.659 2.659 0 0 0-1.988-.946h-.043a2.51 2.51 0 0 0-1.768.713l-2.906 2.815-2.595-2.5 11.433-11.252 1.23 1.23c-1.092 1.085-5.028 5-5.381 5.406a1.4 1.4 0 0 0-.348 1.1 2.567 2.567 0 0 0 1.161 1.69 4.64 4.64 0 0 0 2.778.936 4.963 4.963 0 0 0 3.373-1.386c.666-.619 2.192-2.112 3.2-3.1l8.449 8.589a1.151 1.151 0 0 1-.197 1.056zm-10.906 8.933c-.152.142-.269.252-.291.278a1.408 1.408 0 0 1-.961.357 1.849 1.849 0 0 1-.556-.087c-.412-.138-.715-.391-.927-1.18l3.426-3.567a.586.586 0 0 1 .279-.064 1.429 1.429 0 0 1 .962.47 2.492 2.492 0 0 1 .438 1.126c-.065.197-.425.845-2.37 2.666zm-3.886-1.646a2.818 2.818 0 0 1-1.375-.667 1.967 1.967 0 0 1-.529-1.2l3.637-3.634a.867.867 0 0 1 .338-.067 1.578 1.578 0 0 1 1.091.589 1.492 1.492 0 0 1 .266 1.411zm-2.984-2.953a1.644 1.644 0 0 1-1.16-.452 2.414 2.414 0 0 1-.565-1.4l3.281-3.168a2.66 2.66 0 0 1 .765-.125 1.2 1.2 0 0 1 .877.311 1.316 1.316 0 0 1 .383 1.256zm-2.821-2.921a1.68 1.68 0 0 1-1.129-.481 1.873 1.873 0 0 1-.612-1.315l3.238-3.137a1.031 1.031 0 0 1 .692-.251v-.383l.007.383a1.152 1.152 0 0 1 .866.436 1.405 1.405 0 0 1 .269 1.53zm26.077-8.488a3.224 3.224 0 0 0-.949-2.3l-8.949-8.948a3.248 3.248 0 0 0-4.59 0l-2.939 2.945-2.94-2.941a3.253 3.253 0 0 0-4.592 0l-8.948 8.948a3.248 3.248 0 0 0 .012 4.6l4.55 4.379a3.42 3.42 0 0 0 1.1 2.441 3.274 3.274 0 0 0 1.775.868 3.722 3.722 0 0 0 1 2.07 3.115 3.115 0 0 0 1.8.854 3.433 3.433 0 0 0 .99 1.9 4.431 4.431 0 0 0 2.107 1.045 2.882 2.882 0 0 0 1.893 2.137 3.352 3.352 0 0 0 1.039.166 2.982 2.982 0 0 0 2.016-.774c.044-.045.119-.116.216-.205l.07-.066a15.811 15.811 0 0 0 2.494-2.736 3.315 3.315 0 0 0 .9.124 2.458 2.458 0 0 0 1.516-.461 2.659 2.659 0 0 0 1.128-2.136 3.123 3.123 0 0 0 1.98-.807 2.864 2.864 0 0 0 .811-2.023 3.133 3.133 0 0 0 2.144-.958A2.683 2.683 0 0 0 269.6 42l2.974-2.975a3.228 3.228 0 0 0 .952-2.297z" transform="translate(6.227 8.823) translate(-238.668 -24.535)"/>
        </g>
    </g>
</svg>
