<svg xmlns="http://www.w3.org/2000/svg" width="111.863" height="29.99" viewBox="0 0 111.863 29.99">
    <defs>
        <style>
            .cls-1{fill:#0032a0}
        </style>
    </defs>
    <g id="Brinks" transform="translate(-81.357 -430.431)">
        <g id="Grupo_1238" transform="translate(81.357 430.431)">
            <path id="Trazado_527" d="M851.661 447.755a9.889 9.889 0 0 1-3.505-.739 5.546 5.546 0 0 1-2.849-2.47 5.622 5.622 0 0 1-.641-2.176c-.013-.134-.035-.421-.035-.421l4.532-.011c.122 0 .172.023.2.158a2.368 2.368 0 0 0 1.928 1.9 4.242 4.242 0 0 0 2.04-.083 1.774 1.774 0 0 0 .418-.192 1.013 1.013 0 0 0 .47-1.1 1.078 1.078 0 0 0-.466-.7 4.087 4.087 0 0 0-1.415-.626c-.695-.185-1.4-.336-2.089-.537a9.432 9.432 0 0 1-3.178-1.529 4.437 4.437 0 0 1-1.791-2.729 4.964 4.964 0 0 1 .743-3.913 4.476 4.476 0 0 1 2.116-1.56 8.83 8.83 0 0 1 2.525-.542 12.313 12.313 0 0 1 2.243 0 6.917 6.917 0 0 1 3.449 1.175 4.4 4.4 0 0 1 1.815 2.971c.053.326.107 1 .107 1h-4.591s-.039-.211-.069-.313a1.66 1.66 0 0 0-1.211-1.211 3.04 3.04 0 0 0-1.717.02 1.057 1.057 0 0 0-.817.8.749.749 0 0 0 .316.847 4.66 4.66 0 0 0 1.413.6c.905.247 1.821.458 2.724.712a7.624 7.624 0 0 1 2.806 1.4 6.6 6.6 0 0 1 1.2 1.271 3.493 3.493 0 0 1 .652 1.868 5.52 5.52 0 0 1-1.759 4.44 5.446 5.446 0 0 1-1.84 1.08 8.411 8.411 0 0 1-2.638.61c-.047.004-.937.006-1.086 0z" class="cls-1" transform="translate(-760.693 -430.432)"/>
            <path id="Trazado_528" d="M81.357 433.415s.43.007.646 0c.094 0 .128.033.119.122v16.492c0 .279.018.226-.232.231l-.532.009z" class="cls-1" transform="translate(-81.357 -433.087)"/>
            <path id="Trazado_529" d="M582.271 450.27h-4.759a.217.217 0 0 1-.221-.123c-1.418-2.476-4.448-7.726-4.562-7.861s-.219-.1-.256.068c-.024.108-.033 7.9-.033 7.9h-4.78v-16.82l4.448-.01a.207.207 0 0 1 .206.124c1.529 2.666 4.757 8.254 4.854 8.373a.2.2 0 0 0 .164.073.209.209 0 0 0 .106-.146c.024-.123.035-8.33.035-8.408h4.8z" class="cls-1" transform="translate(-514.182 -433.095)"/>
            <path id="Trazado_530" d="M231.177 450.237v-16.844h.158c2.813 0 5.627-.02 8.44.009a5.917 5.917 0 0 1 3.633 1.178 3.5 3.5 0 0 1 1.38 2.709 4.885 4.885 0 0 1-.4 2.353 3.479 3.479 0 0 1-1.157 1.419.915.915 0 0 0-.07.061c.239.162.484.308.708.482a4.193 4.193 0 0 1 1.689 2.8 4.849 4.849 0 0 1-2.611 5.107 6.25 6.25 0 0 1-2.4.675c-.428.034-.86.051-1.289.051q-3.946.007-7.892 0zm4.9-8.406V445.848c.005.331.158.475.488.475h2.921a2.4 2.4 0 0 0 .446-.034 1.3 1.3 0 0 0 1.11-.96 2.19 2.19 0 0 0 .064-.68 1.3 1.3 0 0 0-.9-1.258 2.033 2.033 0 0 0-.617-.108c-.791-.012-1.582 0-2.373-.006-.257 0-.316-.063-.315-.312v-.2-2.416c0-.25.049-.3.293-.3h1.868a1.838 1.838 0 0 0 .362-.031 1.228 1.228 0 0 0 1.056-.919 1.96 1.96 0 0 0 .046-.528 1.045 1.045 0 0 0-.6-.946 1.762 1.762 0 0 0-.825-.191h-2.486a1.124 1.124 0 0 0-.168.011.379.379 0 0 0-.371.437l-.001 3.95z" class="cls-1" transform="translate(-214.701 -433.062)"/>
            <path id="Trazado_531" d="M381.311 442.414c.1.053.173.093.248.137a3.712 3.712 0 0 1 1.477 1.771 5.9 5.9 0 0 1 .48 2.177c.023.669.026 1.338.023 2.007a2.51 2.51 0 0 0 .66 1.756.916.916 0 0 1-.1.011h-4.48a.249.249 0 0 1-.224-.136 2.238 2.238 0 0 1-.361-1.122c-.041-.593-.052-1.187-.089-1.78a5.145 5.145 0 0 0-.282-1.539 1.986 1.986 0 0 0-1.687-1.342 17.261 17.261 0 0 0-1.766-.053c-.191 0-.191 0-.191-.191v-3.323h2.517a1.457 1.457 0 0 0 1.526-1.39 2.117 2.117 0 0 0-.083-.927 1.411 1.411 0 0 0-1.309-1c-.6-.044-1.206-.025-1.81-.03h-1.138a.43.43 0 0 0-.489.427 1.7 1.7 0 0 0-.011.238v12.156h-4.847V433.43h.17c2.9 0 5.8-.007 8.694 0a6.3 6.3 0 0 1 2.127.46 5.635 5.635 0 0 1 2.122 1.306 4.153 4.153 0 0 1 1.2 2.665 4.928 4.928 0 0 1-.681 3 3.9 3.9 0 0 1-1.553 1.465c-.04.026-.082.052-.143.088z" class="cls-1" transform="translate(-337.702 -433.099)"/>
            <path id="Trazado_532" d="M767.909 433.431s-3.617 5.364-5.377 7.964a.226.226 0 0 0 0 .3c1.81 2.808 5.515 8.579 5.515 8.579h-5.792a.236.236 0 0 1-.233-.129q-2.467-4.051-4.941-8.1a.185.185 0 0 1 0-.225q2.528-4.138 5.049-8.279a.19.19 0 0 1 .181-.118z" class="cls-1" transform="translate(-682.732 -433.093)"/>
            <path id="Rect치ngulo_997" d="M0 0H4.787V16.823H0z" class="cls-1" transform="translate(69.424 .344)"/>
            <path id="Trazado_533" d="M512.941 450.261v-16.836s3.022 0 4.454-.011c.145 0 .179.04.179.18v16.486c0 .181 0 .182-.184.182z" class="cls-1" transform="translate(-465.48 -433.086)"/>
            <path id="Rect치ngulo_998" d="M0 0H2.977V16.826H0z" class="cls-1" transform="translate(12.516 .339)"/>
            <path id="Rect치ngulo_999" d="M0 0H2.104V16.829H0z" class="cls-1" transform="translate(9.258 .341)"/>
            <path id="Trazado_534" d="M138.808 433.437v16.844h-1.436c-.107 0-.136-.027-.134-.136v-16.472c0-.282-.022-.236.24-.237.389-.001 1.33.001 1.33.001z" class="cls-1" transform="translate(-131.092 -433.105)"/>
            <path id="Rect치ngulo_1000" d="M0 0H1.082V16.829H0z" class="cls-1" transform="translate(3.228 .336)"/>
        </g>
        <g id="Grupo_1239" transform="translate(81.357 451.757)">
            <path id="Trazado_535" d="M87.651 629.987l1.108.28a3.733 3.733 0 0 1-1.253 2.082 3.455 3.455 0 0 1-2.213.717 3.974 3.974 0 0 1-2.2-.551 3.443 3.443 0 0 1-1.291-1.6 5.69 5.69 0 0 1-.443-2.244 4.933 4.933 0 0 1 .5-2.282 3.425 3.425 0 0 1 1.422-1.479 4.152 4.152 0 0 1 2.031-.506 3.433 3.433 0 0 1 2.113.64 3.325 3.325 0 0 1 1.194 1.8l-1.091.257a2.592 2.592 0 0 0-.845-1.331 2.254 2.254 0 0 0-1.394-.417 2.709 2.709 0 0 0-1.614.463 2.442 2.442 0 0 0-.91 1.242 4.984 4.984 0 0 0-.263 1.608 5.109 5.109 0 0 0 .311 1.865 2.318 2.318 0 0 0 .968 1.191 2.716 2.716 0 0 0 1.422.394 2.383 2.383 0 0 0 1.576-.537 2.746 2.746 0 0 0 .872-1.592z" class="cls-1" transform="translate(-81.357 -624.401)"/>
            <path id="Trazado_536" d="M152.714 634.078l3.215-8.372h1.193l3.427 8.372h-1.262l-.976-2.536h-3.5l-.919 2.536zm2.416-3.438h2.838l-.874-2.319q-.4-1.057-.594-1.736a10.731 10.731 0 0 1-.451 1.6z" class="cls-1" transform="translate(-144.867 -625.557)"/>
            <path id="Trazado_537" d="M228.587 630.232l1.045-.091a2.305 2.305 0 0 0 .346 1.031 1.883 1.883 0 0 0 .842.651 3.193 3.193 0 0 0 1.285.248 3.08 3.08 0 0 0 1.12-.188 1.556 1.556 0 0 0 .723-.517 1.2 1.2 0 0 0 .237-.717 1.092 1.092 0 0 0-.229-.688 1.7 1.7 0 0 0-.754-.494 14.744 14.744 0 0 0-1.491-.408 7.625 7.625 0 0 1-1.616-.522 2.265 2.265 0 0 1-.894-.78 1.908 1.908 0 0 1-.294-1.042 2.131 2.131 0 0 1 .36-1.185 2.227 2.227 0 0 1 1.051-.837 3.982 3.982 0 0 1 1.536-.286 4.2 4.2 0 0 1 1.642.3 2.365 2.365 0 0 1 1.093.882 2.533 2.533 0 0 1 .411 1.319l-1.062.08a1.716 1.716 0 0 0-.58-1.2 2.259 2.259 0 0 0-1.46-.405 2.343 2.343 0 0 0-1.465.368 1.106 1.106 0 0 0-.459.888.952.952 0 0 0 .325.742 4.405 4.405 0 0 0 1.67.6 11.048 11.048 0 0 1 1.853.534 2.54 2.54 0 0 1 1.08.854 2.082 2.082 0 0 1 .348 1.191 2.274 2.274 0 0 1-.383 1.259 2.518 2.518 0 0 1-1.1.919 3.831 3.831 0 0 1-1.614.328 4.819 4.819 0 0 1-1.9-.331 2.667 2.667 0 0 1-1.2-1 2.821 2.821 0 0 1-.466-1.503z" class="cls-1" transform="translate(-212.396 -624.401)"/>
            <path id="Trazado_538" d="M303.267 634.078v-8.372h1.108v3.438h4.352v-3.438h1.108v8.372h-1.108v-3.946h-4.352v3.946z" class="cls-1" transform="translate(-278.863 -625.557)"/>
            <path id="Trazado_539" d="M409.525 634.078v-8.372h6.053v.988h-4.946v2.564h4.632v.982h-4.632v2.85h5.14v.988z" class="cls-1" transform="translate(-373.436 -625.557)"/>
            <path id="Trazado_540" d="M483.64 629.987l1.107.28a3.729 3.729 0 0 1-1.253 2.082 3.455 3.455 0 0 1-2.213.717 3.976 3.976 0 0 1-2.2-.551 3.444 3.444 0 0 1-1.291-1.6 5.706 5.706 0 0 1-.443-2.244 4.927 4.927 0 0 1 .5-2.282 3.42 3.42 0 0 1 1.422-1.479 4.151 4.151 0 0 1 2.03-.506 3.433 3.433 0 0 1 2.113.64 3.319 3.319 0 0 1 1.193 1.8l-1.091.257a2.589 2.589 0 0 0-.845-1.331 2.253 2.253 0 0 0-1.394-.417 2.7 2.7 0 0 0-1.613.463 2.438 2.438 0 0 0-.911 1.242 5.007 5.007 0 0 0-.263 1.608 5.115 5.115 0 0 0 .311 1.865 2.32 2.32 0 0 0 .968 1.191 2.717 2.717 0 0 0 1.422.394 2.385 2.385 0 0 0 1.577-.537 2.752 2.752 0 0 0 .874-1.592z" class="cls-1" transform="translate(-433.799 -624.401)"/>
            <path id="Trazado_541" d="M554 628.8a4.551 4.551 0 0 1 1.12-3.264 3.807 3.807 0 0 1 2.89-1.179 4.009 4.009 0 0 1 2.09.554 3.617 3.617 0 0 1 1.419 1.545A5.012 5.012 0 0 1 562 628.7a4.941 4.941 0 0 1-.514 2.279 3.511 3.511 0 0 1-1.457 1.522 4.161 4.161 0 0 1-2.033.517 3.959 3.959 0 0 1-2.113-.571 3.675 3.675 0 0 1-1.411-1.559A4.725 4.725 0 0 1 554 628.8zm1.143.017a3.352 3.352 0 0 0 .814 2.384 2.839 2.839 0 0 0 4.1-.008 3.558 3.558 0 0 0 .808-2.5 4.294 4.294 0 0 0-.346-1.785 2.656 2.656 0 0 0-1.011-1.182 2.74 2.74 0 0 0-1.493-.42 2.835 2.835 0 0 0-2.025.808 3.61 3.61 0 0 0-.851 2.701z" class="cls-1" transform="translate(-502.02 -624.355)"/>
            <path id="Trazado_542" d="M639.484 634.078v-8.372h1.667l1.982 5.928q.274.828.4 1.24.143-.457.446-1.342l2-5.825h1.491v8.372h-1.068v-7.009l-2.433 7.007h-1l-2.421-7.128v7.128z" class="cls-1" transform="translate(-578.107 -625.557)"/>
            <path id="Trazado_543" d="M728.082 634.078v-8.372h1.667l1.982 5.928q.274.828.4 1.24.142-.457.446-1.342l2-5.825h1.491v8.372H735v-7.009l-2.433 7.007h-1l-2.421-7.128v7.128z" class="cls-1" transform="translate(-656.961 -625.557)"/>
            <path id="Trazado_544" d="M817.2 634.078v-8.372h6.054v.988H818.3v2.564h4.631v.982H818.3v2.85h5.14v.988z" class="cls-1" transform="translate(-736.276 -625.557)"/>
            <path id="Trazado_545" d="M888.085 634.078v-8.372h3.715a4.943 4.943 0 0 1 1.7.226 1.861 1.861 0 0 1 .931.8 2.376 2.376 0 0 1 .348 1.262 2.1 2.1 0 0 1-.577 1.5 2.919 2.919 0 0 1-1.782.777 2.868 2.868 0 0 1 .668.417 5.748 5.748 0 0 1 .92 1.114l1.457 2.279h-1.395l-1.108-1.742q-.485-.754-.8-1.154a2.519 2.519 0 0 0-.562-.56 1.671 1.671 0 0 0-.505-.223 3.341 3.341 0 0 0-.617-.04h-1.285v3.718zm1.108-4.677h2.382a3.573 3.573 0 0 0 1.188-.157 1.267 1.267 0 0 0 .651-.5 1.362 1.362 0 0 0 .222-.751 1.247 1.247 0 0 0-.431-.977 2.018 2.018 0 0 0-1.362-.383h-2.65z" class="cls-1" transform="translate(-799.369 -625.557)"/>
            <path id="Trazado_546" d="M968.122 629.987l1.107.28a3.729 3.729 0 0 1-1.253 2.082 3.455 3.455 0 0 1-2.213.717 3.975 3.975 0 0 1-2.2-.551 3.444 3.444 0 0 1-1.291-1.6 5.706 5.706 0 0 1-.443-2.244 4.928 4.928 0 0 1 .5-2.282 3.42 3.42 0 0 1 1.422-1.479 4.151 4.151 0 0 1 2.03-.506 3.433 3.433 0 0 1 2.113.64 3.32 3.32 0 0 1 1.193 1.8L968 627.1a2.589 2.589 0 0 0-.845-1.331 2.253 2.253 0 0 0-1.394-.417 2.7 2.7 0 0 0-1.613.463 2.439 2.439 0 0 0-.911 1.242 5.009 5.009 0 0 0-.263 1.608 5.117 5.117 0 0 0 .311 1.865 2.321 2.321 0 0 0 .968 1.191 2.717 2.717 0 0 0 1.422.394 2.385 2.385 0 0 0 1.577-.537 2.752 2.752 0 0 0 .87-1.591z" class="cls-1" transform="translate(-865.002 -624.401)"/>
            <path id="Trazado_547" d="M1041.756 634.078v-8.372h6.053v.988h-4.946v2.564h4.632v.982h-4.632v2.85H1048v.988z" class="cls-1" transform="translate(-936.141 -625.557)"/>
        </g>
    </g>
</svg>
