<svg xmlns="http://www.w3.org/2000/svg" id="Coin" width="33.637" height="41.814" viewBox="0 0 33.637 41.814">
    <defs>
        <style>
            .cls-1{fill:#f0aa00}.cls-3{fill:#fcdc59}.cls-5{fill:#fbfce6}
        </style>
    </defs>
    <g id="Grupo_120">
        <g id="Grupo_119">
            <g id="Grupo_118">
                <ellipse id="Elipse_5" cx="15.018" cy="20.907" class="cls-1" rx="15.018" ry="20.907"/>
                <path id="Rectángulo_105" d="M0 0H3.304V41.814H0z" class="cls-1" transform="translate(15.315)"/>
                <ellipse id="Elipse_6" cx="15.018" cy="20.907" fill="#fc0" rx="15.018" ry="20.907" transform="translate(3.601)"/>
                <path id="Trazado_72" d="M672.538 293.869a5.645 5.645 0 0 1-2.855.216 11.154 11.154 0 0 1-6.783-5.263 21.171 21.171 0 0 1-2.825-8.358c6.121.058 11.37 5.213 13.67 12.569a4.75 4.75 0 0 1-1.207.836z" class="cls-3" transform="translate(-641.352 -280.46)"/>
                <path id="Trazado_73" d="M636.557 315.782c-6.056-3.678-10.779-9.23-12.015-16.093.993-6.525 4.172-11.925 8.42-14.647a25.537 25.537 0 0 0 4.718 11.587 16.508 16.508 0 0 0 11.775 6.838 10.232 10.232 0 0 0 4.758-.8c.021.455.036.912.036 1.374 0 6.844-2.363 12.919-6.014 16.733a49.174 49.174 0 0 1-11.678-4.992z" class="cls-3" transform="translate(-620.612 -283.132)"/>
                <path id="Trazado_74" d="M644.562 370.463c-.269.02-.54.032-.814.032-4.6 0-8.713-2.881-11.468-7.415a43.6 43.6 0 0 0 12.282 7.383z" class="cls-3" transform="translate(-625.129 -328.68)"/>
                <path id="Trazado_75" fill="#da8100" d="M633.216 307.215c0 8.874 5.074 16.068 11.334 16.068s11.335-7.194 11.335-16.068-5.075-16.068-11.335-16.068-11.334 7.194-11.334 16.068z" transform="translate(-625.675 -286.696)"/>
                <path id="Trazado_76" d="M631.9 308.69c0 8.66 4.915 15.681 10.978 15.681s10.978-7.02 10.978-15.681-4.915-15.68-10.978-15.68-10.978 7.02-10.978 15.68z" class="cls-1" transform="translate(-624.907 -287.783)"/>
            </g>
        </g>
    </g>
    <path id="Trazado_79" d="M620.944 310.656l.709 1.3 1.3.709-1.3.709-.709 1.3-.709-1.3-1.3-.709 1.3-.709z" class="cls-5" transform="translate(-617.342 -298.082)"/>
    <path id="Trazado_80" d="M627.012 302.655l.393.718.718.393-.718.393-.393.718-.392-.718-.718-.393.718-.393z" class="cls-5" transform="translate(-621.406 -293.413)"/>
</svg>
