<svg xmlns="http://www.w3.org/2000/svg" width="47.735" height="47.735" viewBox="0 0 47.735 47.735">
    <g>
        <path fill="#fddd2c" d="M44.868 21q1.172 0 2.34.115t2.317.343q1.15.229 2.272.57t2.203.789q1.083.449 2.117 1t2.009 1.2q.975.652 1.881 1.4t1.736 1.573q.829.829 1.573 1.736t1.4 1.881q.651.975 1.2 2.009t1 2.117q.448 1.083.789 2.205t.57 2.272q.229 1.15.343 2.317t.115 2.34q0 1.172-.115 2.34t-.343 2.317q-.229 1.15-.57 2.272T66.918 54q-.449 1.083-1 2.117t-1.2 2.009q-.652.975-1.4 1.881t-1.573 1.736q-.829.829-1.736 1.573t-1.881 1.4q-.975.651-2.009 1.2t-2.117 1q-1.083.448-2.205.789t-2.272.57q-1.15.229-2.317.343t-2.34.115q-1.172 0-2.34-.115t-2.317-.343q-1.15-.229-2.272-.57t-2.205-.789q-1.083-.449-2.117-1t-2.009-1.2q-.975-.652-1.881-1.4t-1.737-1.572q-.829-.829-1.573-1.736t-1.4-1.881q-.651-.975-1.2-2.009t-1-2.117q-.448-1.083-.789-2.205t-.57-2.272q-.229-1.15-.343-2.317T21 44.867q0-1.172.115-2.34t.343-2.317q.229-1.15.57-2.272t.789-2.205q.449-1.083 1-2.117t1.2-2.009q.652-.975 1.4-1.881t1.573-1.736q.829-.829 1.736-1.573t1.881-1.4q.975-.651 2.009-1.2t2.117-1q1.083-.448 2.205-.789t2.272-.57q1.15-.229 2.317-.343T44.868 21z" transform="translate(-21 -21)"/>
        <g>
            <path fill="#fff" stroke="#fff" d="M80.485 51.8a2 2 0 0 1-2 2h-1.049a.508.508 0 0 0-.512.511v4.279l-2.537-2.794v-9.181a3.018 3.018 0 0 0-3.019-3.009l-12.234.03v-2.617a2 2 0 0 1 2-2l17.358.039a2 2 0 0 1 2 2zm-7.12 5.556a2 2 0 0 1-2 2l-8.673.03a.489.489 0 0 0-.374.167l-4.2 4.623v-4.284a.513.513 0 0 0-.511-.511h-3.59a2 2 0 0 1-2-2V46.645a2 2 0 0 1 2-2l4.613-.01 12.745-.028a2 2 0 0 1 2 2v10.748zm5.124-19.315L61.13 38a3.024 3.024 0 0 0-3.019 3.009v2.606l-4.1.01A3.019 3.019 0 0 0 51 46.645v10.749a3.025 3.025 0 0 0 3.009 3.019H57.1V65.5a.511.511 0 0 0 .324.472.576.576 0 0 0 .178.039.5.5 0 0 0 .373-.168l4.925-5.43 8.448-.039a3.017 3.017 0 0 0 3.019-3.009v-.059l2.675 2.94a.507.507 0 0 0 .374.168.379.379 0 0 0 .176-.039.51.51 0 0 0 .325-.472v-5.086h.55a3.015 3.015 0 0 0 3.009-3.009V41.059a3 3 0 0 0-2.988-3.02z" transform="translate(8.793 10.991) translate(-51 -38)"/>
        </g>
    </g>
</svg>
