<svg xmlns="http://www.w3.org/2000/svg" width="40.241" height="37.6" viewBox="0 0 40.241 37.6">
    <defs>
        <style>
            .cls-1{fill:#67e5dd}.cls-3{fill:#c0f4f1}
        </style>
    </defs>
    <g id="Ico_diamante">
        <path id="Trazado_274" d="M101.978 41.628H82.662a1.047 1.047 0 0 0-.878.477l-4.392 6.762a1.048 1.048 0 0 0 .1 1.267L91.53 65.9a1.047 1.047 0 0 0 1.564 0l14.044-15.765a1.048 1.048 0 0 0 .1-1.266l-4.378-6.761a1.049 1.049 0 0 0-.882-.48z" class="cls-1" transform="translate(-72.193 -29.435)"/>
        <path id="Trazado_275" fill="#96ede7" d="M102.858 42.106a1.047 1.047 0 0 0-.879-.478H82.663a1.049 1.049 0 0 0-.879.477l-4.392 6.762a1.045 1.045 0 0 0-.162.688h30.17a1.044 1.044 0 0 0-.161-.688z" transform="translate(-72.194 -29.435)"/>
        <path id="Trazado_276" d="M110.056 59.587l-5.1 16.545-5.1-16.545z" class="cls-3" transform="translate(-84.84 -39.467)"/>
        <path id="Trazado_277" d="M99.862 49.616l5.1-7.877 5.1 7.877z" class="cls-1" transform="translate(-84.84 -29.497)"/>
        <path id="Trazado_278" d="M76.3 49.617l5.1-7.877 5.1 7.877z" class="cls-3" transform="translate(-71.677 -29.497)"/>
        <path id="Trazado_279" d="M122.658 49.617l5.1-7.877 5.1 7.877z" class="cls-3" transform="translate(-97.574 -29.497)"/>
        <path id="Trazado_280" d="M81.107 42.066l3.693 5.707h-7.4zm24.135 5.707h-7.381l3.688-5.7zM97 49.345h7.911L92.815 62.922zm-7.175 13.576L77.732 49.345h7.91zM86.233 47.1l-3.673-5.681h7.347zm6.5-5.678h7.367l-3.682 5.694zm-5.065 6.355l3.653-5.645 3.652 5.645zm7.685 1.572L91.32 62.434l-4.033-13.089zm7.172-8.661a1.827 1.827 0 0 0-1.539-.837H81.669a1.827 1.827 0 0 0-1.538.835l-4.391 6.757a1.838 1.838 0 0 0 .169 2.218l14.042 15.765a1.836 1.836 0 0 0 1.369.614 1.835 1.835 0 0 0 1.369-.613l14.043-15.765a1.837 1.837 0 0 0 .17-2.216z" transform="translate(-71.2 -28.44)"/>
        <path id="Trazado_281" d="M68.21 57.806h-1.6a.786.786 0 1 0 0 1.572h1.6a.786.786 0 0 0 0-1.572z" transform="translate(-65.826 -38.472)"/>
        <path id="Trazado_282" d="M152.2 57.806h-1.6a.786.786 0 1 0 0 1.572h1.6a.786.786 0 1 0 0-1.572z" transform="translate(-112.747 -38.472)"/>
        <path id="Trazado_283" d="M135.5 31.022a.785.785 0 0 0 .556-.23l2.611-2.611a.786.786 0 0 0-1.112-1.112l-2.611 2.611a.786.786 0 0 0 .556 1.342z" transform="translate(-104.31 -21.173)"/>
        <path id="Trazado_284" d="M81.552 30.76a.786.786 0 0 0 1.112-1.112l-2.611-2.611a.786.786 0 0 0-1.112 1.112z" transform="translate(-73.024 -21.155)"/>
        <path id="Trazado_285" d="M110.464 20.694a.786.786 0 0 0 .786-.786v-5.122a.786.786 0 1 0-1.572 0v5.122a.786.786 0 0 0 .786.786z" transform="translate(-90.323 -14)"/>
        <path id="Trazado_286" d="M110.462 33.2a.787.787 0 1 0-.556-.23.788.788 0 0 0 .556.23z" transform="translate(-90.322 -23.849)"/>
    </g>
</svg>
