<svg xmlns="http://www.w3.org/2000/svg" id="Ico_verificado" width="27.348" height="34.039" viewBox="0 0 27.348 34.039">
    <defs>
        <clipPath id="clip-path">
            <path id="Trazado_183" d="M26.071 15.7l-.015.017c-.35.365-.713.715-1.07 1.07l-2.206 2.206-2.534 2.534q-1.049 1.052-2.106 2.1l-.871.871a1.087 1.087 0 0 1-1.513 0c-.184-.184-.367-.371-.553-.553l-2.413-2.408-1.5-1.5a1.07 1.07 0 0 1 1.51-1.515c.184.184.367.371.553.553l2.412 2.412.745.745.333-.325L19.05 19.7l2.534-2.534c.7-.7 1.4-1.4 2.106-2.1l.871-.871a1.085 1.085 0 0 1 1.513 0 1.072 1.072 0 0 1 0 1.506m6.277 7.344V7.251a.721.721 0 0 0-.521-.688c-.424-.086-.85-.167-1.277-.253L27.5 5.7l-3.71-.732-3.205-.637c-.517-.1-1.034-.209-1.551-.306l-.023-.008A.833.833 0 0 0 18.854 4h-.008a1.217 1.217 0 0 0-.217.017c-.433.086-.869.175-1.3.26-1.046.207-2.091.418-3.137.625-1.26.249-2.519.5-3.779.753l-3.27.654c-.528.106-1.074.181-1.6.317h-.021A.72.72 0 0 0 5 7.319v17.145c0 .2-.008.409 0 .614a3.486 3.486 0 0 0 .135.734 10.256 10.256 0 0 0 .414 1.288 14.249 14.249 0 0 0 3.112 4.675 23.645 23.645 0 0 0 4.133 3.312 31.524 31.524 0 0 0 3.694 2.032 22.221 22.221 0 0 0 2.083.881c.361.125.719-.1 1.044-.253.652-.3 1.3-.614 1.937-.947a35.156 35.156 0 0 0 3.27-1.916 23.268 23.268 0 0 0 4.454-3.743 13.844 13.844 0 0 0 2.213-3.2 8.515 8.515 0 0 0 .762-2.249 4.677 4.677 0 0 0 .086-.878c.011-.591.011-1.184.011-1.774" class="cls-1" transform="translate(-5 -4)"/>
        </clipPath>
        <clipPath id="clip-path-2">
            <path id="Rectángulo_189" d="M0 0H27.352V34.128H0z" class="cls-1"/>
        </clipPath>
        <style>
            .cls-1{fill:#9fe237}
        </style>
    </defs>
    <g id="Grupo_286">
        <g id="Grupo_285">
            <g id="Grupo_284">
                <g id="Grupo_283" clip-path="url(#clip-path)">
                    <g id="Grupo_282" transform="translate(-.004)">
                        <g id="Grupo_281" clip-path="url(#clip-path-2)">
                            <path id="Rectángulo_188" d="M0 0H27.831V34.674H0z" class="cls-1" transform="translate(-.377 -.228)"/>
                        </g>
                    </g>
                </g>
            </g>
        </g>
    </g>
</svg>
