<svg xmlns="http://www.w3.org/2000/svg" width="42.186" height="39.418" viewBox="0 0 42.186 39.418">
    <defs>
        <style>
            .cls-1{fill:#67e5dd}.cls-3{fill:#c0f4f1}
        </style>
    </defs>
    <g id="Ico_diamantes">
        <path id="Trazado_274" d="M103.175 41.628h-20.25a1.1 1.1 0 0 0-.921.5l-4.6 7.089a1.1 1.1 0 0 0 .1 1.328l14.718 16.526a1.1 1.1 0 0 0 1.64 0l14.723-16.528a1.1 1.1 0 0 0 .1-1.327l-4.59-7.088a1.1 1.1 0 0 0-.92-.5z" class="cls-1" transform="translate(-71.95 -28.845)"/>
        <path id="Trazado_275" fill="#96ede7" d="M104.1 42.129a1.1 1.1 0 0 0-.922-.5H82.926a1.1 1.1 0 0 0-.921.5l-4.6 7.089a1.1 1.1 0 0 0-.169.721h31.624a1.094 1.094 0 0 0-.168-.721z" transform="translate(-71.951 -28.845)"/>
        <path id="Trazado_276" d="M110.549 59.587l-5.344 17.345-5.343-17.345z" class="cls-3" transform="translate(-84.113 -38.494)"/>
        <path id="Trazado_277" d="M99.862 50l5.344-8.258L110.549 50z" class="cls-1" transform="translate(-84.113 -28.904)"/>
        <path id="Trazado_278" d="M76.3 50l5.344-8.258L86.986 50z" class="cls-3" transform="translate(-71.453 -28.905)"/>
        <path id="Trazado_279" d="M122.658 50L128 41.739 133.345 50z" class="cls-3" transform="translate(-96.362 -28.905)"/>
        <path id="Trazado_280" d="M81.381 42.173l3.87 5.983h-7.756zm25.3 5.983h-7.736l3.866-5.979zM98.039 49.8h8.293L93.654 64.038zM90.52 64.037L77.843 49.8h8.293zm-3.765-16.59L82.9 41.5h7.7zm6.814-5.953h7.722l-3.86 5.969zm-5.31 6.662l3.829-5.917 3.829 5.917zm8.056 1.644l-4.228 13.727L87.86 49.8zm7.518-9.08a1.915 1.915 0 0 0-1.613-.877H81.97a1.916 1.916 0 0 0-1.612.875l-4.6 7.089a1.927 1.927 0 0 0 .177 2.325l14.717 16.53a1.924 1.924 0 0 0 1.435.644 1.924 1.924 0 0 0 1.435-.643l14.722-16.528a1.926 1.926 0 0 0 .178-2.323z" transform="translate(-70.995 -27.888)"/>
        <path id="Trazado_281" d="M68.326 57.806H66.65a.824.824 0 1 0 0 1.648h1.675a.824.824 0 0 0 0-1.648z" transform="translate(-65.826 -37.537)"/>
        <path id="Trazado_282" d="M152.316 57.806h-1.675a.824.824 0 1 0 0 1.648h1.675a.824.824 0 1 0 0-1.648z" transform="translate(-110.954 -37.537)"/>
        <path id="Trazado_283" d="M135.539 31.224a.823.823 0 0 0 .583-.241l2.737-2.737a.824.824 0 0 0-1.166-1.166l-2.737 2.737a.824.824 0 0 0 .583 1.407z" transform="translate(-102.84 -20.899)"/>
        <path id="Trazado_284" d="M81.69 30.951a.824.824 0 1 0 1.166-1.166l-2.737-2.737a.824.824 0 1 0-1.166 1.166z" transform="translate(-72.749 -20.882)"/>
        <path id="Trazado_285" d="M110.5 21.017a.824.824 0 0 0 .824-.824v-5.369a.824.824 0 1 0-1.648 0v5.369a.824.824 0 0 0 .824.824z" transform="translate(-89.388 -14)"/>
        <path id="Trazado_286" d="M110.5 33.277a.825.825 0 1 0-.583-.242.826.826 0 0 0 .583.242z" transform="translate(-89.387 -23.472)"/>
    </g>
</svg>
