<svg xmlns="http://www.w3.org/2000/svg" width="48.702" height="31.04" viewBox="0 0 48.702 31.04">
    <path fill="#9bdc35" d="M24.351 31.04a22.012 22.012 0 0 1-9.281-2.193 35.109 35.109 0 0 1-7.541-4.87A45.967 45.967 0 0 1 .31 16.468a1.6 1.6 0 0 1 0-1.9 46.517 46.517 0 0 1 7.218-7.505 35.109 35.109 0 0 1 7.541-4.87A22.015 22.015 0 0 1 24.351 0a22.011 22.011 0 0 1 9.28 2.193 35.093 35.093 0 0 1 7.542 4.87 46.52 46.52 0 0 1 7.218 7.509 1.6 1.6 0 0 1 0 1.9 46 46 0 0 1-7.218 7.509 35.093 35.093 0 0 1-7.542 4.87 22.009 22.009 0 0 1-9.28 2.189zm0-27.83c-4.187 0-8.587 1.687-13.079 5.016a44.743 44.743 0 0 0-7.621 7.292 44.981 44.981 0 0 0 7.631 7.292 29.112 29.112 0 0 0 6.072 3.52 18.224 18.224 0 0 0 7 1.5 18.267 18.267 0 0 0 7.007-1.5 29.073 29.073 0 0 0 6.072-3.519 44.723 44.723 0 0 0 7.62-7.291 44.919 44.919 0 0 0-7.631-7.294C32.924 4.9 28.527 3.211 24.351 3.211zm0 21.942a9.633 9.633 0 1 1 9.634-9.632 9.644 9.644 0 0 1-9.634 9.632zm0-16.054a6.422 6.422 0 1 0 6.422 6.422 6.429 6.429 0 0 0-6.422-6.42z"/>
</svg>
