<svg xmlns="http://www.w3.org/2000/svg" width="34.235" height="36.7" viewBox="0 0 34.235 36.7">
    <defs>
        <style>
            .cls-1{fill:#4d4d4d;stroke:#4d4d4d;stroke-width:.7px}
        </style>
    </defs>
    <g id="Ico_agenda" transform="translate(.35 .35)">
        <path id="Trazado_427" d="M357.118 291.248h-3.16v-1.265a.783.783 0 0 0-1.567 0v1.265h-4.858v-1.265a.783.783 0 0 0-1.566 0v1.265h-4.859v-1.265a.783.783 0 0 0-1.567 0v1.265h-4.859v-1.265a.783.783 0 0 0-1.566 0v1.265h-3.291a3.124 3.124 0 0 0-3.121 3.121v19.374a3.125 3.125 0 0 0 3.121 3.121h4.563a9.117 9.117 0 0 0 18.167 0h4.563a3.125 3.125 0 0 0 3.121-3.121v-19.374a3.124 3.124 0 0 0-3.121-3.121zm-27.293 1.566h3.291v.889a.783.783 0 0 0 1.566 0v-.889h4.859v.889a.783.783 0 0 0 1.567 0v-.889h4.859v.889a.783.783 0 0 0 1.566 0v-.889h4.858v.889a.783.783 0 0 0 1.567 0v-.889h3.16a1.556 1.556 0 0 1 1.554 1.554v3.3h-30.4v-3.3a1.556 1.556 0 0 1 1.553-1.554zm13.647 30.819a7.553 7.553 0 1 1 7.553-7.553 7.561 7.561 0 0 1-7.553 7.554zm13.646-8.336h-4.563a9.117 9.117 0 0 0-18.167 0h-4.563a1.556 1.556 0 0 1-1.554-1.555v-14.505h30.4v14.506a1.556 1.556 0 0 1-1.553 1.557z" class="cls-1" transform="translate(-326.704 -289.2)"/>
        <path id="Trazado_428" d="M369.085 348.847v-4.387a.783.783 0 1 0-1.566 0v4.711a.777.777 0 0 0 .015.153c0 .023.013.045.02.068s.014.052.024.078.027.051.04.077.019.04.032.058a.775.775 0 0 0 .1.12l1.96 1.961a.783.783 0 0 0 1.108-1.108z" class="cls-1" transform="translate(-351.535 -322.29)"/>
    </g>
</svg>
