<svg xmlns="http://www.w3.org/2000/svg" width="38.577" height="37.952" viewBox="0 0 38.577 37.952">
    <defs>
        <style>
            .cls-3{fill:#bde377}.cls-4{fill:#6ba638}.cls-5{fill:#fbfce6}
        </style>
    </defs>
    <g id="Ico_trade_N" transform="translate(-3.911 -1.912)">
        <g id="Grupo_416" transform="translate(6.443 1.912)">
            <path id="Trazado_294" fill="#ff7580" d="M-164.17 57.98a.717.717 0 0 1 .048-1.016h.005a9.189 9.189 0 0 1 2.854-1.734 10.811 10.811 0 0 1 6.576-.151 16.5 16.5 0 0 1 3.571 1.545c.075.039.142.082.21.124l1.173-1.173a.706.706 0 0 1 1.2.451l.405 5.906a.706.706 0 0 1-.752.752l-5.906-.4a.706.706 0 0 1-.451-1.2l.907-.907-.03-.028a9.4 9.4 0 0 0-3.737-2.246 6.825 6.825 0 0 0-5 .489.72.72 0 0 1-.858-.161z" transform="translate(184.167 -54.638)"/>
            <path id="Trazado_295" fill="#00c8ec" d="M-239.922 195.544a.717.717 0 0 1-.048 1.016h-.006a9.2 9.2 0 0 1-2.854 1.734 10.813 10.813 0 0 1-6.576.151 16.518 16.518 0 0 1-3.571-1.545c-.074-.039-.142-.082-.21-.124l-1.174 1.173a.706.706 0 0 1-1.2-.451l-.405-5.905a.706.706 0 0 1 .752-.752l5.905.405a.705.705 0 0 1 .451 1.2l-.907.907.03.028a9.4 9.4 0 0 0 3.735 2.253 6.826 6.826 0 0 0 5-.49.721.721 0 0 1 .858.161z" transform="translate(255.97 -160.934)"/>
        </g>
        <g id="Grupo_743" transform="rotate(-7 41.259 2.524)">
            <g id="Grupo_744" transform="rotate(7 1.97 32.21)">
                <path id="Trazado_415" d="M0 6.584a14.5 14.5 0 0 0 4.649 7.308c3.318 2.928 9.366.714 13.153 5.433 3.379 4.211 4.353 13.008 4.353 13.008l15.6-9.106s.062-8.085-5-12.464C29.014 7.53 22.1 8.837 19.011 5.429A33.363 33.363 0 0 1 15.425 0z" class="cls-3"/>
                <path id="Trazado_416" d="M0 5.717a14.121 14.121 0 0 0 4.072 6.069c2.538 2.319 9.713.986 13.185 5.716 3.024 4.119 4.1 11.356 4.1 11.356l13.355-7.815s-.452-6.815-4.387-10.924C27.657 7.336 20.148 8.543 16.726 5.2A35.568 35.568 0 0 1 12.953 0z" class="cls-4" transform="translate(1.657 1.344)"/>
                <path id="Trazado_417" d="M0 5.29s.636 2.164 3.665 4.835c2.742 2.418 9.6.893 13.075 5.534 2.768 3.7 4.289 10.25 4.289 10.25l11.221-6.592a16.447 16.447 0 0 0-3.675-9.453C26.147 7.035 17.527 7.837 14.557 4.3a35.422 35.422 0 0 1-2.92-4.3z" class="cls-3" transform="translate(2.87 2.338)"/>
                <path id="Trazado_418" d="M1.686 6.043c-1.433-.609-2.848-2.08-.2-3.819A14.255 14.255 0 0 1 11.173.158c2.8.468 4.477 2.514 1 4.678s-6.611 2.821-7.9 2.522a7.969 7.969 0 0 1-2.587-1.315z" class="cls-4" transform="translate(14.116 9.394)"/>
                <path id="Trazado_419" d="M2.291.647a1.108 1.108 0 0 1-.8 1.337 1.108 1.108 0 0 1-1.445-.573A1.108 1.108 0 0 1 .843.074a1.108 1.108 0 0 1 1.448.573z" class="cls-4" transform="translate(11.462 7.092)"/>
                <path id="Trazado_420" d="M2.312.839a1.206 1.206 0 0 1-.727 1.541A1.206 1.206 0 0 1 .068 1.6 1.206 1.206 0 0 1 .8.062a1.205 1.205 0 0 1 1.512.777z" class="cls-4" transform="translate(27.482 18.525)"/>
                <path id="Trazado_421" d="M7.429.761l.516-.322L7.046 0l-.57.391A4.487 4.487 0 0 0 5.149.233c-.9.057-3.075.7-2.5 1.62.5.793 2.323 1.371.767 2.09-.745.344-2.141-.2-2.18-.8a.949.949 0 0 1 .333-.743l-.685-.56S-.911 3.105.615 4.413l-.6.41.838.431.582-.364a4.222 4.222 0 0 0 3.285-.136 1.218 1.218 0 0 0 .222-2.105c-.6-.437-1.37-.921-.811-1.308a2.159 2.159 0 0 1 2.175-.129.825.825 0 0 1 .194 1.092l1.036.431s.85-.722.471-1.441a1.447 1.447 0 0 0-.578-.533z" class="cls-3" transform="translate(16.727 10.028)"/>
            </g>
            <path id="Trazado_296" d="M1.437 0l.508.929.929.508-.929.508-.508.929-.508-.928L0 1.437.929.929z" class="cls-5" transform="translate(3.952 8.702)"/>
            <path id="Trazado_297" d="M.8 0l.281.515.511.285-.515.281-.277.511-.285-.514L0 .8.515.515z" class="cls-5" transform="translate(6.03 6.314)"/>
        </g>
    </g>
</svg>
