<svg xmlns="http://www.w3.org/2000/svg" id="Ico_seguidores" width="30" height="33.999" viewBox="0 0 30 33.999">
    <defs>
        <style>
            .cls-1{fill:#8365ff}
        </style>
    </defs>
    <circle id="Elipse_19" cx="8.5" cy="8.5" r="8.5" class="cls-1" transform="translate(6)"/>
    <path id="Sustracción_20" d="M30 14H0v-.038-.254a12.61 12.61 0 0 1 1.179-5.336 13.665 13.665 0 0 1 3.214-4.357 15.1 15.1 0 0 1 4.768-2.938 16.362 16.362 0 0 1 11.677 0 15.105 15.105 0 0 1 4.768 2.938 13.671 13.671 0 0 1 3.214 4.357A12.61 12.61 0 0 1 30 13.708V14z" class="cls-1" transform="translate(0 19.999)"/>
</svg>
