<svg xmlns="http://www.w3.org/2000/svg" width="39.036" height="26.738" viewBox="0 0 39.036 26.738">
    <defs>
        <style>
            .cls-1{fill:#fff}
        </style>
    </defs>
    <g id="Premium_ico" transform="translate(-1553.508 7167.439)">
        <path id="Trazado_299" d="M30.289 35.587a1.044 1.044 0 0 1 1.024 1.026.843.843 0 0 1-.157.473l-.553-.394.159.789a1.111 1.111 0 0 1-.473.159 1.026 1.026 0 0 1 0-2.051zM40.7 49.073l5.677-7.573 5.441 7.335L58.284 43l-1.656 9.7h-20.5l-1.818-9.541zm5.678-14.9a1.025 1.025 0 1 1-1.026 1.024 1.044 1.044 0 0 1 1.025-1.028zm15.142 2.208a1.025 1.025 0 1 1 1.022 1.019 1 1 0 0 1-.71-.316l.08-.551-.316.237a.6.6 0 0 1-.078-.393zm-31.231 3.544a3.979 3.979 0 0 0 .946-.157l2.918 15.3H58.6l2.76-15.536a3.177 3.177 0 0 0 1.183.237 3.392 3.392 0 1 0-3.391-3.391 2.886 2.886 0 0 0 .71 1.971l-7.649 6.861-5.125-6.782a3.39 3.39 0 1 0-4.1-3.313 3.442 3.442 0 0 0 2.681 3.313l-5.284 7.1-7.495-6.864a3.366 3.366 0 1 0-2.6 1.261z" class="cls-1" transform="translate(1526.61 -7199.162)"/>
        <path id="Trazado_300" d="M56.259 47.549H32.127a1.183 1.183 0 1 0 0 2.366h24.052a1.213 1.213 0 0 0 1.184-1.183 1.147 1.147 0 0 0-1.104-1.183z" class="cls-1" transform="translate(1528.795 -7190.615)"/>
    </g>
</svg>
