<svg xmlns="http://www.w3.org/2000/svg" width="47.735" height="47.735" viewBox="0 0 47.735 47.735">
    <defs>
        <style>
            .cls-2{fill:#fff;stroke:#fff;stroke-width:.5px}
        </style>
    </defs>
    <g id="Ico_tienda">
        <path id="Trazado_447" fill="#050458" d="M44.868 21q1.173 0 2.34.115t2.317.343q1.15.229 2.272.57t2.203.789q1.083.449 2.117 1t2.009 1.2q.975.652 1.881 1.4t1.736 1.573q.829.829 1.573 1.736t1.4 1.881q.651.975 1.2 2.009t1 2.117q.448 1.083.789 2.205t.57 2.272q.229 1.15.343 2.317t.115 2.34q0 1.172-.115 2.34t-.343 2.317q-.229 1.15-.57 2.272T66.919 54q-.449 1.083-1 2.117t-1.2 2.009q-.652.975-1.4 1.881t-1.573 1.736q-.829.829-1.736 1.573t-1.881 1.4q-.975.651-2.009 1.2t-2.117 1q-1.083.448-2.205.789t-2.272.57q-1.15.229-2.317.343t-2.34.115q-1.173 0-2.34-.115t-2.317-.343q-1.15-.229-2.272-.57t-2.205-.789q-1.083-.449-2.117-1t-2.009-1.2q-.975-.652-1.881-1.4t-1.736-1.573q-.829-.829-1.573-1.736t-1.4-1.881q-.651-.975-1.2-2.009t-1-2.117q-.448-1.083-.789-2.205t-.57-2.272q-.229-1.15-.343-2.317T21 44.868q0-1.172.115-2.34t.343-2.317q.229-1.15.57-2.272t.789-2.205q.449-1.083 1-2.117t1.2-2.009q.652-.975 1.4-1.881t1.573-1.736q.829-.829 1.736-1.573t1.881-1.4q.975-.651 2.009-1.2t2.117-1q1.083-.448 2.205-.789t2.272-.57q1.15-.229 2.317-.343T44.868 21z" transform="translate(-21 -21)"/>
        <g id="Grupo_990" transform="translate(4.396 5.496)">
            <g id="Grupo_35">
                <path id="Trazado_13" d="M12.793 12.053l3.469 5.361H9.313zm22.668 5.361h-6.933l3.463-5.356zm-7.742 1.477h7.429L23.788 31.64zM20.981 31.64L9.624 18.891h7.429zm-3.372-14.86l-3.45-5.334h6.9zm6.1-5.334h6.919l-3.458 5.348zm-4.756 5.969l3.428-5.3 3.431 5.3zm7.216 1.477l-3.785 12.292L18.6 18.891zm6.738-8.136a1.72 1.72 0 0 0-1.447-.786H13.322a1.716 1.716 0 0 0-1.444.786L7.753 17.1a1.726 1.726 0 0 0 .159 2.084L21.1 33.992a1.724 1.724 0 0 0 1.285.578 1.725 1.725 0 0 0 1.288-.578l13.19-14.8a1.73 1.73 0 0 0 .159-2.081z" class="cls-2" transform="translate(-2.972 1.783)"/>
                <path id="Trazado_14" d="M8.238 12.727h-1.5a.737.737 0 1 0 0 1.474h1.5a.737.737 0 1 0 0-1.474z" class="cls-2" transform="translate(-6 6.47)"/>
                <path id="Trazado_15" d="M21.136 12.727h-1.5a.737.737 0 1 0 0 1.474h1.5a.737.737 0 1 0 0-1.474z" class="cls-2" transform="translate(16.958 6.47)"/>
                <path id="Trazado_16" d="M17.315 11.9a.747.747 0 0 0 .524-.216L20.29 9.23a.738.738 0 0 0-1.045-1.042l-2.451 2.451a.738.738 0 0 0 .521 1.261z" class="cls-2" transform="translate(13.014 -2.13)"/>
                <path id="Trazado_17" d="M10.648 11.677a.736.736 0 0 0 1.042 0 .735.735 0 0 0 0-1.042L9.239 8.181a.739.739 0 0 0-1.045 1.045z" class="cls-2" transform="translate(-2.636 -2.139)"/>
                <path id="Trazado_18" d="M13.474 12.287a.738.738 0 0 0 .737-.74v-4.81a.738.738 0 0 0-1.477 0v4.81a.741.741 0 0 0 .74.74z" class="cls-2" transform="translate(5.963 -6)"/>
                <path id="Trazado_19" d="M13.472 10.184a.738.738 0 1 0-.521-1.261.733.733 0 0 0 0 1.045.735.735 0 0 0 .521.216z" class="cls-2" transform="translate(5.96 -1.4)"/>
            </g>
        </g>
    </g>
</svg>
